<?xml version="1.0" encoding="utf-8"?>
<!-- Generator: Adobe Illustrator 18.1.1, SVG Export Plug-In . SVG Version: 6.00 Build 0)  -->
<svg version="1.1" id="Laag_1" xmlns="http://www.w3.org/2000/svg" xmlns:xlink="http://www.w3.org/1999/xlink" x="0px" y="0px"
	 viewBox="0 0 31 37" enable-background="new 0 0 31 37" xml:space="preserve">
<path fill="#E2DBD3" d="M17.332,26.448c-1.06,0-1.735,0.803-1.735,1.872c0,1.06,0.675,1.872,1.735,1.872
	c1.051,0,1.726-0.812,1.726-1.872C19.058,27.251,18.383,26.448,17.332,26.448z"/>
<g>
	<path fill="#FFFFFF" d="M7.36,26.5c0-0.35-0.256-0.5-0.667-0.5H5v1h1.693C7.103,27,7.36,26.867,7.36,26.5z"/>
	<path fill="#FFFFFF" d="M6.745,29H5v1h1.745c0.453,0,0.726-0.09,0.726-0.5C7.471,29.141,7.215,29,6.745,29z"/>
	<path fill="#FFFFFF" d="M18.667,2h-7C5.067,2,0,2.467,0,8.625v20.167C0,34.949,5.15,35,11.75,35h7C25.35,35,31,34.866,31,28.708
		V9.042C31,2.884,25.267,2,18.667,2z M4,8h9v9H4V8z M7.052,31H4v-6h2.958c1.085,0,1.641,0.925,1.641,1.685
		c0,0.709-0.444,1.313-0.983,1.424c0.615,0.094,1.094,0.659,1.094,1.368C8.71,30.341,8.146,31,7.052,31z M14,31h-4v-6h1v5h3V31z
		 M17.332,31.268c-1.726,0-2.983-1.231-2.983-2.948s1.256-2.949,2.983-2.949c1.718,0,2.974,1.231,2.974,2.949
		S19.05,31.268,17.332,31.268z M27,30.2c-0.333,0.925-1.537,1.154-2.562,1.154c-1.675,0-3.103-1.24-3.103-3.035
		c0-1.803,1.333-2.949,3.008-2.949c1.179,0,1.906,0.598,2.333,1.273l-1.008,0.547c-0.265-0.402-0.756-0.743-1.355-0.743
		c-1.043,0-1.797,0.795-1.797,1.872c0,1.077,0.994,1.872,2.037,1.872c0.504,0,1.114-0.066,1.447-0.436V29h-2v-1h3V30.2z M27,22H4v-3
		h23V22z M27,17H16v-3h11V17z M27,11H16V8h11V11z"/>
	<rect x="7" y="11" fill="#FFFFFF" width="3" height="3"/>
</g>
</svg>
